<svg xmlns="http://www.w3.org/2000/svg" xmlns:xlink="http://www.w3.org/1999/xlink" preserveAspectRatio="xMidYMid" width="30" height="30" viewBox="0 0 30 30">
  <defs>
    <style>
      .cls-1 {
        fill: #242424;
        fill-rule: evenodd;
      }
    </style>
  </defs>
  <path d="M6.500,13.999 C6.776,13.999 7.000,14.224 7.000,14.499 L7.000,14.999 C7.000,15.551 6.551,15.999 6.000,15.999 L5.000,15.999 C4.448,15.999 4.000,15.551 4.000,14.999 L4.000,14.499 C4.000,14.223 4.224,13.999 4.500,13.999 C4.776,13.999 5.000,14.223 5.000,14.499 L5.000,14.999 L6.000,14.999 L6.000,14.499 C6.000,14.224 6.224,13.999 6.500,13.999 ZM13.500,15.999 L16.500,15.999 C16.776,15.999 17.000,16.223 17.000,16.500 L17.000,18.999 L19.500,18.999 C19.776,18.999 20.000,19.223 20.000,19.499 L20.000,22.500 C20.000,22.775 19.776,22.999 19.500,22.999 L17.000,22.999 L17.000,25.499 C17.000,25.776 16.776,25.999 16.500,25.999 L13.500,25.999 C13.224,25.999 13.000,25.776 13.000,25.499 L13.000,22.999 L10.500,22.999 C10.224,22.999 10.000,22.775 10.000,22.500 L10.000,19.499 C10.000,19.223 10.224,18.999 10.500,18.999 L13.000,18.999 L13.000,16.500 C13.000,16.223 13.224,15.999 13.500,15.999 ZM11.000,20.000 L11.000,21.999 L13.500,21.999 C13.776,21.999 14.000,22.223 14.000,22.500 L14.000,24.999 L16.000,24.999 L16.000,22.499 C16.000,22.223 16.224,21.999 16.500,21.999 L19.000,21.999 L19.000,20.000 L16.500,20.000 C16.224,20.000 16.000,19.775 16.000,19.499 L16.000,16.999 L14.000,16.999 L14.000,19.499 C14.000,19.775 13.776,20.000 13.500,20.000 L11.000,20.000 ZM25.500,13.999 C25.776,13.999 26.000,14.224 26.000,14.499 L26.000,14.999 C26.000,15.551 25.552,15.999 25.000,15.999 L24.000,15.999 C23.448,15.999 23.000,15.551 23.000,14.999 L23.000,14.499 C23.000,14.223 23.224,13.999 23.500,13.999 C23.776,13.999 24.000,14.223 24.000,14.499 L24.000,14.999 L25.000,14.999 L25.000,14.499 C25.000,14.224 25.224,13.999 25.500,13.999 ZM28.500,13.000 L25.500,13.000 C25.224,13.000 25.000,12.775 25.000,12.499 L25.000,9.999 L24.000,9.999 L24.000,12.499 C24.000,12.775 23.776,13.000 23.500,13.000 L6.500,13.000 C6.224,13.000 6.000,12.775 6.000,12.499 L6.000,9.999 L5.000,9.999 L5.000,12.499 C5.000,12.775 4.776,13.000 4.500,13.000 L3.521,13.000 C3.244,13.000 3.021,12.775 3.021,12.499 C3.021,12.223 3.244,11.999 3.521,11.999 L4.000,11.999 L4.000,9.999 C4.000,9.448 4.448,8.999 5.000,8.999 L6.000,8.999 C6.551,8.999 7.000,9.448 7.000,9.999 L7.000,11.999 L23.000,11.999 L23.000,9.999 C23.000,9.448 23.448,8.999 24.000,8.999 L25.000,8.999 C25.552,8.999 26.000,9.448 26.000,9.999 L26.000,12.000 L28.500,12.000 C28.803,12.000 29.000,11.803 29.000,11.499 L29.000,8.500 C29.000,7.672 28.327,6.999 27.500,6.999 L2.500,6.999 C1.673,6.999 1.000,7.672 1.000,8.500 L1.000,11.499 C1.000,11.808 1.191,12.000 1.500,12.000 C1.776,12.000 2.000,12.223 2.000,12.499 L2.000,27.499 C2.000,28.326 2.673,29.000 3.500,29.000 L26.500,29.000 C27.327,29.000 28.000,28.326 28.000,27.499 L28.000,14.499 C28.000,14.224 28.224,13.999 28.500,13.999 C28.776,13.999 29.000,14.224 29.000,14.499 L29.000,27.499 C29.000,28.878 27.878,29.999 26.500,29.999 L3.500,29.999 C2.121,29.999 1.000,28.878 1.000,27.499 L1.000,12.921 C0.406,12.723 -0.000,12.178 -0.000,11.499 L-0.000,8.499 C-0.000,7.121 1.121,5.999 2.500,5.999 L27.500,5.999 C28.878,5.999 30.000,7.121 30.000,8.499 L30.000,11.499 C30.000,12.354 29.355,13.000 28.500,13.000 ZM13.500,1.999 L16.500,1.999 C17.878,1.999 19.000,3.121 19.000,4.499 C19.000,4.775 18.776,4.999 18.500,4.999 C18.224,4.999 18.000,4.775 18.000,4.499 C18.000,3.673 17.327,2.999 16.500,2.999 L13.500,2.999 C12.673,2.999 12.000,3.673 12.000,4.499 C12.000,4.775 11.776,4.999 11.500,4.999 C11.224,4.999 11.000,4.775 11.000,4.499 C11.000,3.121 12.121,1.999 13.500,1.999 ZM20.500,4.999 C20.224,4.999 20.000,4.775 20.000,4.499 C20.000,2.668 18.332,1.000 16.500,1.000 L13.500,1.000 C11.701,1.000 10.000,2.700 10.000,4.499 C10.000,4.775 9.776,4.999 9.500,4.999 C9.224,4.999 9.000,4.775 9.000,4.499 C9.000,2.145 11.145,-0.000 13.500,-0.000 L16.500,-0.000 C18.897,-0.000 21.000,2.102 21.000,4.499 C21.000,4.775 20.776,4.999 20.500,4.999 Z" class="cls-1"/>
</svg>
