<svg xmlns="http://www.w3.org/2000/svg" xmlns:xlink="http://www.w3.org/1999/xlink" preserveAspectRatio="xMidYMid" width="26" height="30" viewBox="0 0 26 30">
  <defs>
    <style>
      .cls-1 {
        fill: #242424;
        fill-rule: evenodd;
      }
    </style>
  </defs>
  <path d="M25.500,29.999 L0.500,29.999 C0.223,29.999 -0.000,29.776 -0.000,29.499 L-0.000,27.500 C-0.000,26.658 0.658,25.999 1.500,25.999 L6.000,25.999 C6.276,25.999 6.500,26.223 6.500,26.499 C6.500,26.775 6.276,26.999 6.000,26.999 L1.500,26.999 C1.215,26.999 1.000,27.214 1.000,27.500 L1.000,29.000 L25.000,29.000 L25.000,27.500 C25.000,27.214 24.785,26.999 24.500,26.999 L23.500,26.999 C23.223,26.999 23.000,26.775 23.000,26.499 C23.000,26.223 23.223,25.999 23.500,25.999 L24.500,25.999 C25.341,25.999 26.000,26.658 26.000,27.500 L26.000,29.499 C26.000,29.776 25.776,29.999 25.500,29.999 ZM21.500,26.999 L8.000,26.999 C7.764,26.999 7.560,26.835 7.511,26.605 C7.461,26.374 7.580,26.141 7.795,26.043 L17.795,21.543 C18.047,21.430 18.342,21.542 18.456,21.794 C18.569,22.046 18.457,22.342 18.205,22.456 L10.329,25.999 L20.841,25.999 L14.018,1.634 C14.003,1.593 13.768,0.999 13.000,0.999 C12.204,0.999 12.000,1.576 11.979,1.642 L10.466,6.371 L13.465,5.005 C13.715,4.891 14.012,5.002 14.127,5.252 C14.241,5.505 14.130,5.801 13.879,5.915 L10.054,7.657 L8.217,13.400 L14.895,10.380 C15.147,10.265 15.444,10.377 15.557,10.630 C15.671,10.881 15.559,11.177 15.307,11.291 L7.806,14.684 L5.967,20.431 L16.301,15.723 C16.552,15.607 16.849,15.719 16.964,15.970 C17.078,16.221 16.967,16.518 16.716,16.632 L5.555,21.718 L4.604,24.690 C4.520,24.953 4.240,25.098 3.976,25.014 C3.713,24.930 3.568,24.648 3.652,24.385 L6.918,14.177 C6.923,14.161 6.926,14.146 6.933,14.130 L11.024,1.347 C11.151,0.892 11.736,-0.001 13.000,-0.001 C14.516,-0.001 14.957,1.289 14.975,1.343 L21.981,26.365 C22.023,26.515 21.992,26.677 21.898,26.801 C21.803,26.926 21.656,26.999 21.500,26.999 Z" class="cls-1"/>
</svg>
