<svg xmlns="http://www.w3.org/2000/svg" xmlns:xlink="http://www.w3.org/1999/xlink" preserveAspectRatio="xMidYMid" width="31" height="30" viewBox="0 0 31 30">
  <defs>
    <style>
      .cls-1 {
        fill: #242424;
        fill-rule: evenodd;
      }
    </style>
  </defs>
  <path d="M29.450,20.689 L1.550,20.689 C0.695,20.689 -0.000,19.993 -0.000,19.137 L-0.000,18.103 C-0.000,17.247 0.695,16.551 1.550,16.551 L6.200,16.551 C6.485,16.551 6.717,16.783 6.717,17.068 C6.717,17.353 6.485,17.586 6.200,17.586 L1.550,17.586 C1.265,17.586 1.033,17.818 1.033,18.103 L1.033,19.137 C1.033,19.422 1.265,19.654 1.550,19.654 L29.450,19.654 C29.735,19.654 29.967,19.422 29.967,19.137 L29.967,18.103 C29.967,17.818 29.735,17.586 29.450,17.586 L13.433,17.586 C13.148,17.586 12.917,17.353 12.917,17.068 C12.917,16.783 13.148,16.551 13.433,16.551 L29.450,16.551 C30.305,16.551 31.000,17.247 31.000,18.103 L31.000,19.137 C31.000,19.993 30.305,20.689 29.450,20.689 ZM6.717,14.482 C6.853,14.482 6.985,14.537 7.082,14.634 L9.817,17.371 L12.551,14.634 C12.648,14.537 12.780,14.482 12.917,14.482 L28.417,14.482 C28.702,14.482 28.933,14.714 28.933,15.000 C28.933,15.285 28.702,15.517 28.417,15.517 L13.131,15.517 L10.182,18.468 C10.081,18.569 9.949,18.620 9.817,18.620 C9.684,18.620 9.552,18.569 9.451,18.468 L6.503,15.517 L2.583,15.517 C2.298,15.517 2.067,15.285 2.067,15.000 C2.067,14.714 2.298,14.482 2.583,14.482 L6.717,14.482 ZM28.417,13.448 L2.583,13.448 C1.685,13.448 1.033,12.795 1.033,11.896 C1.019,11.764 0.674,7.529 3.791,4.112 C6.280,1.383 10.220,-0.001 15.500,-0.001 C20.780,-0.001 24.720,1.383 27.210,4.112 C30.326,7.529 29.981,11.764 29.965,11.943 C29.967,12.795 29.315,13.448 28.417,13.448 ZM26.437,4.799 C24.150,2.300 20.470,1.034 15.500,1.034 C10.522,1.034 6.839,2.304 4.553,4.809 C1.741,7.893 2.061,11.809 2.065,11.850 C2.067,12.225 2.255,12.413 2.583,12.413 L28.417,12.413 C28.750,12.413 28.933,12.229 28.933,11.896 C28.939,11.810 29.248,7.871 26.437,4.799 ZM23.265,5.172 C22.980,5.172 22.746,4.940 22.746,4.655 C22.746,4.369 22.975,4.137 23.260,4.137 L23.265,4.137 C23.551,4.137 23.782,4.369 23.782,4.655 C23.782,4.940 23.551,5.172 23.265,5.172 ZM21.199,6.206 C20.914,6.206 20.680,5.974 20.680,5.689 C20.680,5.404 20.908,5.172 21.194,5.172 L21.199,5.172 C21.484,5.172 21.715,5.404 21.715,5.689 C21.715,5.974 21.484,6.206 21.199,6.206 ZM19.132,4.137 C18.847,4.137 18.613,3.906 18.613,3.620 C18.613,3.335 18.842,3.103 19.127,3.103 L19.132,3.103 C19.418,3.103 19.649,3.335 19.649,3.620 C19.649,3.906 19.418,4.137 19.132,4.137 ZM16.032,6.206 C15.747,6.206 15.513,5.974 15.513,5.689 C15.513,5.404 15.742,5.172 16.027,5.172 L16.032,5.172 C16.318,5.172 16.549,5.404 16.549,5.689 C16.549,5.974 16.318,6.206 16.032,6.206 ZM14.999,3.103 C14.714,3.103 14.480,2.871 14.480,2.586 C14.480,2.300 14.708,2.068 14.994,2.068 L14.999,2.068 C15.285,2.068 15.515,2.300 15.515,2.586 C15.515,2.871 15.285,3.103 14.999,3.103 ZM11.899,5.172 C11.614,5.172 11.380,4.940 11.380,4.655 C11.380,4.369 11.609,4.137 11.894,4.137 L11.899,4.137 C12.185,4.137 12.415,4.369 12.415,4.655 C12.415,4.940 12.185,5.172 11.899,5.172 ZM8.799,4.137 C8.514,4.137 8.280,3.906 8.280,3.620 C8.280,3.335 8.509,3.103 8.794,3.103 L8.799,3.103 C9.085,3.103 9.315,3.335 9.315,3.620 C9.315,3.906 9.085,4.137 8.799,4.137 ZM25.468,23.123 C25.215,22.870 25.091,22.758 24.800,22.758 C24.510,22.758 24.385,22.870 24.132,23.123 C23.851,23.406 23.464,23.792 22.734,23.792 C22.003,23.792 21.617,23.406 21.335,23.123 C21.082,22.870 20.957,22.758 20.667,22.758 C20.377,22.758 20.252,22.870 19.999,23.123 C19.717,23.406 19.331,23.792 18.600,23.792 C17.870,23.792 17.484,23.406 17.202,23.123 C16.948,22.870 16.824,22.758 16.534,22.758 C16.243,22.758 16.119,22.870 15.865,23.123 C15.584,23.406 15.197,23.792 14.467,23.792 C13.736,23.792 13.350,23.406 13.068,23.123 C12.815,22.870 12.691,22.758 12.400,22.758 C12.110,22.758 11.985,22.870 11.732,23.123 C11.450,23.406 11.064,23.792 10.333,23.792 C9.603,23.792 9.217,23.406 8.935,23.123 C8.682,22.870 8.557,22.758 8.267,22.758 C7.976,22.758 7.852,22.870 7.599,23.123 C7.317,23.406 6.931,23.792 6.200,23.792 C5.469,23.792 5.083,23.406 4.801,23.123 C4.548,22.870 4.424,22.758 4.133,22.758 C3.467,22.758 2.679,23.396 2.431,23.641 C2.229,23.842 1.902,23.841 1.700,23.640 C1.499,23.438 1.499,23.111 1.701,22.909 C1.822,22.788 2.921,21.723 4.133,21.723 C4.863,21.723 5.250,22.110 5.531,22.393 C5.785,22.646 5.909,22.758 6.200,22.758 C6.490,22.758 6.614,22.646 6.868,22.393 C7.150,22.110 7.536,21.723 8.266,21.723 C8.997,21.723 9.383,22.110 9.665,22.393 C9.918,22.646 10.043,22.758 10.333,22.758 C10.623,22.758 10.748,22.646 11.001,22.393 C11.283,22.110 11.669,21.723 12.400,21.723 C13.130,21.723 13.517,22.110 13.798,22.393 C14.051,22.646 14.176,22.758 14.466,22.758 C14.757,22.758 14.881,22.646 15.134,22.393 C15.417,22.110 15.802,21.723 16.533,21.723 C17.264,21.723 17.650,22.110 17.932,22.393 C18.185,22.646 18.309,22.758 18.600,22.758 C18.890,22.758 19.015,22.646 19.268,22.393 C19.550,22.110 19.936,21.723 20.667,21.723 C21.397,21.723 21.783,22.110 22.065,22.393 C22.318,22.646 22.443,22.758 22.733,22.758 C23.024,22.758 23.148,22.646 23.401,22.393 C23.683,22.110 24.069,21.723 24.800,21.723 C25.530,21.723 25.917,22.110 26.198,22.393 C26.452,22.646 26.576,22.758 26.867,22.758 C27.533,22.758 28.322,22.120 28.570,21.875 C28.771,21.673 29.099,21.674 29.300,21.876 C29.500,22.078 29.500,22.405 29.299,22.607 C29.178,22.728 28.080,23.792 26.867,23.792 C26.137,23.792 25.751,23.406 25.468,23.123 ZM2.583,24.827 L28.417,24.827 C29.272,24.827 29.967,25.523 29.967,26.379 L29.967,27.413 C29.967,28.839 28.808,29.999 27.383,29.999 L3.617,29.999 C2.192,29.999 1.033,28.839 1.033,27.413 L1.033,26.379 C1.033,25.523 1.729,24.827 2.583,24.827 ZM2.067,27.413 C2.067,28.269 2.762,28.965 3.617,28.965 L27.383,28.965 C28.238,28.965 28.933,28.269 28.933,27.413 L28.933,27.413 L28.933,26.379 C28.933,26.093 28.701,25.861 28.417,25.861 L2.583,25.861 C2.299,25.861 2.067,26.093 2.067,26.379 L2.067,27.413 Z" class="cls-1"/>
</svg>
