<svg xmlns="http://www.w3.org/2000/svg" xmlns:xlink="http://www.w3.org/1999/xlink" preserveAspectRatio="xMidYMid" width="38" height="30" viewBox="0 0 38 30">
  <defs>
    <style>
      .cls-1 {
        fill: #242424;
        fill-rule: evenodd;
      }
    </style>
  </defs>
  <path d="M33.567,16.249 C33.916,16.249 34.200,16.529 34.200,16.874 C34.200,17.219 33.916,17.499 33.567,17.499 L25.967,17.499 C25.617,17.499 25.333,17.219 25.333,16.874 C25.333,16.529 25.617,16.249 25.967,16.249 L33.567,16.249 ZM25.333,11.249 C25.333,11.939 24.765,12.499 24.067,12.499 C23.368,12.499 22.800,11.939 22.800,11.249 C22.800,10.560 23.368,9.999 24.067,9.999 C24.765,9.999 25.333,10.560 25.333,11.249 ZM21.533,11.249 C21.533,11.939 20.965,12.499 20.267,12.499 C19.568,12.499 19.000,11.939 19.000,11.249 C19.000,10.560 19.568,9.999 20.267,9.999 C20.965,9.999 21.533,10.560 21.533,11.249 ZM17.733,11.249 C17.733,11.939 17.165,12.499 16.467,12.499 C15.768,12.499 15.200,11.939 15.200,11.249 C15.200,10.560 15.768,9.999 16.467,9.999 C17.165,9.999 17.733,10.560 17.733,11.249 ZM7.600,11.249 C7.600,10.560 8.168,9.999 8.867,9.999 C9.565,9.999 10.133,10.560 10.133,11.249 C10.133,11.939 9.565,12.499 8.867,12.499 C8.168,12.499 7.600,11.939 7.600,11.249 ZM33.567,19.999 L22.634,19.999 L18.306,29.017 C18.042,29.583 17.408,29.999 16.803,29.999 L13.933,29.999 C13.235,29.999 12.667,29.438 12.667,28.749 L12.667,16.875 C12.667,16.529 12.950,16.249 13.300,16.249 L20.900,16.249 C21.249,16.249 21.533,16.529 21.533,16.875 C21.533,17.219 21.249,17.499 20.900,17.499 L13.933,17.499 L13.933,28.749 L16.803,28.749 C16.895,28.749 17.089,28.637 17.158,28.489 L22.861,16.607 C23.011,16.294 23.389,16.163 23.704,16.309 C24.020,16.457 24.155,16.830 24.006,17.142 L23.234,18.749 L33.566,18.749 C35.313,18.749 36.733,17.347 36.733,15.624 C36.733,13.901 35.313,12.500 33.566,12.500 C33.257,12.500 32.993,12.278 32.942,11.977 C32.919,11.847 32.351,8.749 29.767,8.749 L28.044,8.749 L28.471,10.433 C28.582,10.704 28.879,11.249 29.463,11.249 L31.033,11.249 C31.383,11.249 31.667,11.529 31.667,11.874 C31.667,12.219 31.383,12.500 31.033,12.500 L29.463,12.500 C28.511,12.500 27.672,11.867 27.275,10.849 C27.266,10.825 27.258,10.801 27.252,10.776 L26.739,8.749 L4.701,8.749 C4.442,8.749 4.209,8.594 4.112,8.357 L2.846,5.232 C2.779,5.059 2.623,4.999 2.533,4.999 L1.267,4.999 L1.267,9.374 C1.267,14.631 5.440,18.749 10.767,18.749 C11.116,18.749 11.400,19.029 11.400,19.374 C11.400,19.719 11.116,19.999 10.767,19.999 C4.729,19.999 -0.000,15.332 -0.000,9.374 L-0.000,4.999 C-0.000,4.310 0.568,3.749 1.267,3.749 L2.533,3.749 C3.189,3.749 3.789,4.162 4.025,4.777 L5.129,7.499 L29.767,7.499 C32.395,7.499 33.668,9.749 34.082,11.279 C36.285,11.531 38.000,13.384 38.000,15.624 C38.000,18.037 36.011,19.999 33.567,19.999 ZM19.884,6.198 C19.802,6.233 19.717,6.249 19.633,6.249 C19.388,6.249 19.155,6.108 19.052,5.872 L17.152,1.528 C17.076,1.359 16.880,1.250 16.803,1.250 L13.933,1.250 L13.933,5.625 C13.933,5.969 13.649,6.249 13.300,6.249 C12.950,6.249 12.667,5.969 12.667,5.625 L12.667,1.280 C12.667,0.574 13.235,-0.001 13.933,-0.001 L16.803,-0.001 C17.413,-0.001 18.049,0.432 18.313,1.030 L20.215,5.377 C20.353,5.694 20.205,6.061 19.884,6.198 ZM9.500,4.999 L6.967,4.999 C6.617,4.999 6.333,4.720 6.333,4.374 C6.333,4.029 6.617,3.749 6.967,3.749 L9.500,3.749 C9.850,3.749 10.133,4.029 10.133,4.374 C10.133,4.720 9.850,4.999 9.500,4.999 ZM9.500,1.250 L8.233,1.250 C7.884,1.250 7.600,0.969 7.600,0.624 C7.600,0.279 7.884,-0.001 8.233,-0.001 L9.500,-0.001 C9.850,-0.001 10.133,0.279 10.133,0.624 C10.133,0.969 9.850,1.250 9.500,1.250 ZM9.500,22.499 L5.700,22.499 C5.350,22.499 5.067,22.219 5.067,21.874 C5.067,21.529 5.350,21.249 5.700,21.249 L9.500,21.249 C9.850,21.249 10.133,21.530 10.133,21.874 C10.133,22.219 9.850,22.499 9.500,22.499 ZM3.167,24.999 L9.500,24.999 C9.850,24.999 10.133,25.279 10.133,25.624 C10.133,25.969 9.850,26.249 9.500,26.249 L3.167,26.249 C2.817,26.249 2.533,25.969 2.533,25.624 C2.533,25.279 2.817,24.999 3.167,24.999 ZM6.967,28.749 L9.500,28.749 C9.850,28.749 10.133,29.029 10.133,29.374 C10.133,29.719 9.850,29.999 9.500,29.999 L6.967,29.999 C6.617,29.999 6.333,29.719 6.333,29.374 C6.333,29.029 6.617,28.749 6.967,28.749 ZM12.667,9.999 C13.365,9.999 13.933,10.560 13.933,11.249 C13.933,11.939 13.365,12.499 12.667,12.499 C11.968,12.499 11.400,11.939 11.400,11.249 C11.400,10.560 11.968,9.999 12.667,9.999 Z" class="cls-1"/>
</svg>
