<svg xmlns="http://www.w3.org/2000/svg" xmlns:xlink="http://www.w3.org/1999/xlink" preserveAspectRatio="xMidYMid" width="31" height="30" viewBox="0 0 31 30">
  <defs>
    <style>
      .cls-1 {
        fill: #242424;
        fill-rule: evenodd;
      }
    </style>
  </defs>
  <path d="M30.483,8.035 C30.769,8.035 31.000,8.275 31.000,8.571 L31.000,9.107 C31.000,9.323 30.874,9.520 30.680,9.602 L23.767,12.552 L23.767,19.197 C24.400,18.506 24.711,17.806 24.800,17.579 L24.800,13.928 C24.800,13.632 25.031,13.392 25.317,13.392 C25.602,13.392 25.833,13.632 25.833,13.928 L25.833,17.678 C25.833,17.737 25.823,17.797 25.805,17.853 C25.782,17.922 25.250,19.468 23.767,20.629 L23.767,23.670 C24.366,23.892 24.800,24.480 24.800,25.178 C24.800,26.064 24.104,26.785 23.250,26.785 C22.395,26.785 21.700,26.064 21.700,25.178 C21.700,24.480 22.133,23.892 22.733,23.670 L22.733,12.188 L22.733,12.188 L22.733,10.471 L16.837,8.189 C16.479,8.424 16.017,8.571 15.500,8.571 C14.341,8.571 13.433,7.864 13.433,6.964 C13.433,6.062 14.341,5.356 15.500,5.356 C16.659,5.356 17.567,6.062 17.567,6.964 C17.567,7.082 17.549,7.198 17.519,7.309 L23.200,9.508 L29.132,6.964 L15.500,1.114 L1.868,6.964 L15.500,12.812 L20.720,10.573 C20.984,10.461 21.286,10.590 21.395,10.863 C21.504,11.137 21.379,11.450 21.115,11.563 L15.697,13.887 C15.634,13.914 15.567,13.928 15.500,13.928 C15.433,13.928 15.366,13.914 15.303,13.887 L0.319,7.459 C0.126,7.376 -0.000,7.181 -0.000,6.964 C-0.000,6.747 0.126,6.552 0.319,6.469 L15.303,0.040 C15.429,-0.014 15.571,-0.014 15.697,0.040 L30.681,6.468 C30.874,6.552 31.000,6.746 31.000,6.964 C31.000,7.181 30.874,7.376 30.681,7.459 L23.767,10.426 L23.767,11.394 L29.967,8.748 L29.967,8.571 C29.967,8.275 30.198,8.035 30.483,8.035 ZM15.500,6.427 C14.869,6.427 14.467,6.745 14.467,6.964 C14.467,7.182 14.869,7.499 15.500,7.499 C16.131,7.499 16.533,7.182 16.533,6.964 C16.533,6.745 16.131,6.427 15.500,6.427 ZM23.250,24.642 C22.965,24.642 22.733,24.883 22.733,25.178 C22.733,25.473 22.965,25.714 23.250,25.714 C23.535,25.714 23.767,25.473 23.767,25.178 C23.767,24.883 23.535,24.642 23.250,24.642 ZM0.517,8.035 C0.802,8.035 1.033,8.275 1.033,8.571 L1.033,8.748 L15.500,14.955 L20.985,12.601 C21.248,12.489 21.551,12.618 21.660,12.892 C21.769,13.165 21.644,13.478 21.381,13.591 L15.697,16.030 C15.634,16.057 15.567,16.071 15.500,16.071 C15.433,16.071 15.366,16.057 15.303,16.030 L0.319,9.602 C0.126,9.519 -0.000,9.323 -0.000,9.107 L-0.000,8.571 C-0.000,8.275 0.232,8.035 0.517,8.035 ZM5.683,13.392 C5.969,13.392 6.200,13.632 6.200,13.928 L6.200,17.566 C6.498,18.237 8.568,22.267 14.983,22.479 L14.983,17.678 C14.983,17.382 15.215,17.142 15.500,17.142 C15.785,17.142 16.017,17.382 16.017,17.678 L16.017,22.484 C18.334,22.404 19.973,21.819 20.954,21.316 C21.211,21.185 21.520,21.294 21.646,21.559 C21.773,21.824 21.668,22.145 21.412,22.276 C20.260,22.867 18.299,23.571 15.500,23.571 C7.492,23.571 5.293,18.109 5.203,17.877 C5.179,17.814 5.167,17.746 5.167,17.678 L5.167,13.928 C5.167,13.632 5.398,13.392 5.683,13.392 ZM21.199,27.190 C21.267,26.904 21.548,26.728 21.825,26.801 C22.102,26.873 22.270,27.164 22.201,27.451 L21.684,29.594 C21.626,29.837 21.415,30.000 21.184,30.000 C21.142,30.000 21.100,29.994 21.058,29.983 C20.781,29.911 20.612,29.621 20.682,29.333 L21.199,27.190 ZM23.250,27.321 C23.536,27.321 23.767,27.561 23.767,27.857 L23.767,29.463 C23.767,29.759 23.536,30.000 23.250,30.000 C22.964,30.000 22.733,29.759 22.733,29.463 L22.733,27.857 C22.733,27.561 22.964,27.321 23.250,27.321 ZM24.675,26.801 C24.951,26.729 25.232,26.904 25.301,27.190 L25.818,29.333 C25.887,29.621 25.719,29.911 25.442,29.983 C25.400,29.994 25.357,30.000 25.316,30.000 C25.085,30.000 24.874,29.837 24.815,29.594 L24.299,27.451 C24.230,27.164 24.398,26.873 24.675,26.801 Z" class="cls-1"/>
</svg>
